o wand_b_11
v -7.859518 2.486174 -5.854538
v -1.684182 2.486174 -5.854538
v -1.523784 2.486174 -5.854538
v 7.859518 2.486174 -5.854538
v 8.019917 2.486174 -6.014937
v 2.085178 2.486174 -5.854538
v 2.245577 2.486174 -5.854539
v -8.019917 2.486174 -6.014937
v -7.859518 0.080199 -5.854538
v -1.684182 0.080199 -5.854538
v -8.019917 0.080199 -6.014937
v -1.523784 0.080199 -5.854538
v 2.085178 0.080199 -5.854539
v 2.245577 0.080199 -5.854538
v 7.859518 0.080199 -5.854538
v 8.019917 0.080199 -6.014937
vt 0.000000 0.559101
vt -11.820251 0.559101
vt -11.820251 2.332139
vt 0.000000 2.332139
vt 4.668998 2.332139
vt 0.118203 2.332139
vt 0.118203 0.559101
vt 4.668998 0.559101
vt 7.446757 2.332139
vt 4.787201 2.332139
vt 4.787201 0.559101
vt 7.446757 0.559101
vt 11.702046 2.332139
vt 7.564960 2.332139
vt 7.564960 0.559101
vt 11.702046 0.559101
vt 11.702046 4.814391
vt 7.564960 4.814391
vt 7.446757 4.814391
vt 11.820251 4.932594
vt 0.000000 4.932594
vt -7.033049 4.814391
vt -4.373493 4.814391
vt 4.787201 4.814391
vt 0.118203 4.814391
vt 4.668998 4.814391
vt -11.820251 4.932594
vn 0.000000 0.000000 -1.000000
vn 0.000000 0.000000 1.000000
vn 0.000000 -1.000000 0.000000
vn 0.000000 1.000000 0.000000
usemtl Material.001_rauchfaser.jpg
s off
f 16/1/1 11/2/1 8/3/1 5/4/1
f 2/5/2 1/6/2 9/7/2 10/8/2
f 6/9/2 3/10/2 12/11/2 13/12/2
f 4/13/2 7/14/2 14/15/2 15/16/2
f 15/17/3 14/18/3 13/19/3 16/20/3
f 5/21/4 3/22/4 6/23/4
f 8/21/4 3/24/4 5/20/4
f 1/25/4 2/26/4 8/21/4
f 2/26/4 3/24/4 8/21/4
f 7/18/4 4/17/4 5/20/4
f 7/18/4 5/20/4 6/19/4
f 9/25/3 11/21/3 10/26/3
f 11/21/3 12/24/3 10/26/3
f 16/21/3 12/22/3 11/27/3
f 13/19/3 12/24/3 16/20/3
o wand_a_1
v -7.859518 2.486174 -5.854539
v -7.859518 2.486174 -3.929759
v -7.859518 2.486174 -3.769361
v -7.859518 2.486174 -0.962390
v -7.859518 2.486174 -0.801992
v -7.859518 2.486174 5.854539
v -8.019917 2.486174 6.014937
v -8.019917 2.486174 -6.014937
v -7.859518 0.080199 5.854539
v -7.859518 0.080199 -0.801992
v -7.859518 0.080199 -0.962390
v -7.859518 0.080199 -3.769361
v -7.859518 0.080199 -3.929759
v -7.859518 0.080199 -5.854539
v -8.019917 0.080199 -6.014937
v -8.019917 0.080199 6.014937
vt 10.224517 2.332139
vt 8.806086 2.332139
vt 8.806086 0.559101
vt 10.224517 0.559101
vt 8.687885 2.332139
vt 6.619339 2.332139
vt 6.619339 0.559101
vt 8.687885 0.559101
vt 6.501138 2.332139
vt 1.595734 2.332139
vt 1.595734 0.559101
vt 6.501138 0.559101
vt 0.118203 -3.814391
vt 0.118203 1.091012
vt 0.000000 4.932594
vt 0.000000 -3.932594
vt 10.342719 0.559101
vt 1.477531 0.559101
vt 1.477531 2.332139
vt 10.342719 2.332139
vt 0.118203 4.814391
vt 0.118203 3.395961
vt 0.118203 3.277759
vt 0.118203 1.209215
vn 1.000000 0.000000 0.000000
vn -1.000000 0.000000 0.000000
vn -0.000001 1.000000 0.000000
vn -0.000003 1.000000 0.000000
usemtl Material.001_rauchfaser.jpg
s off
f 17/28/5 18/29/5 29/30/5 30/31/5
f 19/32/5 20/33/5 27/34/5 28/35/5
f 21/36/5 22/37/5 25/38/5 26/39/5
f 22/40/4 21/41/4 24/42/4 23/43/4
f 31/44/6 32/45/6 23/46/6 24/47/6
f 31/42/3 26/41/3 25/40/3 32/43/3
f 17/48/4 24/42/4 18/49/4
f 19/50/7 18/49/7 24/42/7
f 19/50/8 24/42/8 20/51/8
f 24/42/4 21/41/4 20/51/4
f 27/51/3 26/41/3 31/42/3
f 27/51/3 31/42/3 28/50/3
f 31/42/3 29/49/3 28/50/3
f 30/48/3 29/49/3 31/42/3
o wand_b_1
v -7.859518 2.486174 5.854538
v -4.330755 2.486174 5.854538
v -4.170356 2.486174 5.854538
v 0.481195 2.486174 5.854538
v 0.641593 2.486174 5.854538
v 7.859518 2.486174 5.854538
v 8.019917 2.486174 6.014937
v -8.019917 2.486174 6.014937
v -7.859518 0.080199 5.854538
v -4.330755 0.080199 5.854539
v -4.170356 0.080199 5.854538
v -8.019917 0.080199 6.014937
v 0.481195 0.080199 5.854539
v 0.641593 0.080199 5.854539
v 7.859518 0.080199 5.854538
v 8.019917 0.080199 6.014937
vt 0.118203 2.332139
vt 2.718657 2.332139
vt 2.718657 0.559101
vt 0.118203 0.559101
vt 2.836860 2.332139
vt 6.264733 2.332139
vt 6.264733 0.559101
vt 2.836860 0.559101
vt 6.382936 2.332139
vt 11.702046 2.332139
vt 11.702046 0.559101
vt 6.382936 0.559101
vt 0.000000 0.559101
vt 11.820251 0.559101
vt 11.820251 2.332139
vt 0.000000 2.332139
vt 0.118203 -3.814391
vt 0.000000 -3.932594
vt 2.718657 -3.814391
vt 2.836860 -3.814391
vt 6.264733 -3.814391
vt -5.555518 -3.814391
vt -11.820251 -3.932594
vt 11.702046 -3.814391
vt 6.382936 -3.814391
vt 11.820251 -3.932594
vt -5.437314 -3.814391
vt -0.118202 -3.814391
usemtl Material.001_rauchfaser.jpg
s off
f 33/52/1 34/53/1 42/54/1 41/55/1
f 35/56/1 36/57/1 45/58/1 43/59/1
f 37/60/1 38/61/1 47/62/1 46/63/1
f 44/64/2 48/65/2 39/66/2 40/67/2
f 33/68/4 40/69/4 34/70/4
f 40/69/4 35/71/4 34/70/4
f 40/69/4 36/72/4 35/71/4
f 39/69/4 36/73/4 40/74/4
f 38/75/4 37/76/4 39/77/4
f 37/76/4 36/72/4 39/77/4
f 42/70/3 44/69/3 41/68/3
f 43/71/3 44/69/3 42/70/3
f 45/72/3 44/69/3 43/71/3
f 48/69/3 44/74/3 45/73/3
f 48/69/3 45/73/3 46/78/3
f 48/69/3 46/78/3 47/79/3
o wand_a_5
v 0.481195 2.486174 5.854539
v 0.481195 2.486174 0.962390
v 0.641593 2.486174 5.854539
v 0.641593 2.486174 0.962390
v 0.641593 0.080199 0.962390
v 0.481195 0.080199 0.962390
v 0.481195 0.080199 5.854539
v 0.641593 0.080199 5.854539
vt 1.595734 2.332139
vt 5.200910 2.332139
vt 5.200910 0.559101
vt 1.595734 0.559101
vt 6.264733 -0.209215
vt 6.264733 -3.814391
vt 6.382936 -3.814391
vt 6.382936 -0.209215
usemtl Material.001_rauchfaser.jpg
s off
f 49/80/6 50/81/6 54/82/6 55/83/6
f 50/84/4 49/85/4 51/86/4 52/87/4
f 52/81/5 51/80/5 56/83/5 53/82/5
f 55/85/3 54/84/3 53/87/3 56/86/3
o wand_b_2
v 7.859518 2.486174 0.801992
v 7.859518 2.486174 0.962390
v 6.576331 2.085178 0.801992
v 6.576331 2.085178 0.962390
v 6.576331 0.080199 0.801992
v 6.576331 0.080199 0.962390
v 7.859518 0.080199 0.962390
v 7.859518 0.080199 0.801992
vt 5.200910 2.036632
vt 5.319112 2.036632
vt 5.319112 0.559101
vt 5.200910 0.559101
vt 11.702046 2.332139
vt 11.702046 0.559101
vt 10.756426 0.559101
vt 10.756426 2.036632
vt 10.756426 -0.209215
vt 10.756426 -0.091013
vt 11.702046 -0.091013
vt 11.702046 -0.209215
usemtl Material.001_rauchfaser.jpg
s off
f 60/88/6 59/89/6 61/90/6 62/91/6
f 57/92/1 64/93/1 61/94/1 59/95/1
f 62/94/2 63/93/2 58/92/2 60/95/2
f 62/96/3 61/97/3 64/98/3 63/99/3
o wand_b_3
v 0.481195 2.486174 0.962390
v 0.641593 2.486174 0.962390
v 5.613942 2.085178 0.801992
v 5.613942 2.085178 0.962390
v -0.721793 2.085178 0.801992
v -0.721793 2.085178 0.962390
v -0.721793 0.080199 0.962390
v 5.613941 0.080199 0.962390
v 5.613941 0.080199 0.801992
v -0.721793 0.080199 0.801992
v 0.641593 0.080199 0.962390
v 0.481195 0.080199 0.962390
vt 5.200910 2.036632
vt 5.319112 2.036632
vt 5.319112 0.559101
vt 5.200910 0.559101
vt 10.047212 0.559101
vt 5.378214 0.559101
vt 5.378213 2.036632
vt 10.047212 2.036632
vt 6.264733 2.332139
vt 5.378214 2.036632
vt 6.264733 0.559101
vt 6.382936 2.332139
vt 6.382936 0.559101
vt 6.382936 -0.209215
vt 6.264733 -0.209215
vt 5.378214 -0.209215
vt 5.378214 -0.091013
vt 10.047212 -0.091013
vt 10.047212 -0.209215
usemtl Material.001_rauchfaser.jpg
s off
f 70/100/6 69/101/6 74/102/6 71/103/6
f 73/104/1 74/105/1 69/106/1 67/107/1
f 65/108/2 70/109/2 71/105/2 76/110/2
f 72/104/2 68/107/2 66/111/2 75/112/2
f 67/101/5 68/100/5 72/103/5 73/102/5
f 75/113/3 76/114/3 71/115/3 74/116/3
f 74/116/3 73/117/3 72/118/3 75/113/3
o wand_b_4
v -4.170357 2.486174 0.962390
v -4.170357 2.486174 0.801992
v -1.684183 2.085178 0.801992
v -1.684183 2.085178 0.962390
v -1.684183 0.080199 0.801992
v -1.684183 0.080199 0.962390
v -4.170357 0.080199 0.801992
v -4.170357 0.080199 0.962390
vt 5.319112 2.036632
vt 5.200910 2.036632
vt 5.200910 0.559101
vt 5.319112 0.559101
vt 2.836860 2.332139
vt 4.668998 2.036632
vt 4.668998 0.559101
vt 2.836860 0.559101
vt 2.836860 -0.209215
vt 2.836860 -0.091013
vt 4.668998 -0.091013
vt 4.668998 -0.209215
usemtl Material.001_rauchfaser.jpg
s off
f 79/119/5 80/120/5 82/121/5 81/122/5
f 78/123/1 79/124/1 81/125/1 83/126/1
f 77/123/2 84/126/2 82/125/2 80/124/2
f 84/127/3 83/128/3 81/129/3 82/130/3
o wand_c_1
v 7.859518 2.486174 0.801992
v -4.170357 2.486174 0.962390
v -4.170357 2.486174 0.801992
v 0.481195 2.486174 0.962390
v 7.859518 2.486174 0.962390
v 0.641593 2.486174 0.962390
v 6.576332 2.085178 0.801992
v 6.576332 2.085178 0.962390
v 5.613942 2.085178 0.801992
v 5.613942 2.085178 0.962390
v -0.721793 2.085178 0.801992
v -0.721793 2.085178 0.962390
v -1.684183 2.085178 0.801992
v -1.684183 2.085178 0.962390
vt 11.702046 -0.209215
vt 11.702046 -0.091013
vt 2.836860 -0.091013
vt 6.382936 -0.209215
vt 2.836860 -0.209215
vt 6.264733 -0.209215
vt 10.047212 -0.209215
vt 10.047212 -0.091013
vt 10.756426 -0.091013
vt 10.756426 -0.209215
vt 4.668998 -0.209215
vt 4.668998 -0.091013
vt 5.378213 -0.091013
vt 5.378214 -0.209215
vt 5.378213 2.036632
vt 4.668998 2.036632
vt 2.836860 2.332139
vt 11.702046 2.332139
vt 10.756426 2.036632
vt 10.047212 2.036632
vt 5.378214 2.036632
vt 6.264733 2.332139
vt 6.382936 2.332139
usemtl Material.001_rauchfaser.jpg
s off
f 89/131/4 85/132/4 87/133/4 90/134/4
f 86/135/4 88/136/4 90/134/4 87/133/4
f 94/137/3 93/138/3 91/139/3 92/140/3
f 98/141/3 97/142/3 95/143/3 96/144/3
f 95/145/1 97/146/1 87/147/1
f 85/148/1 91/149/1 93/150/1
f 85/148/1 93/150/1 95/145/1
f 85/148/1 95/145/1 87/147/1
f 96/151/2 88/152/2 98/146/2
f 98/146/2 88/152/2 86/147/2
f 89/148/2 94/150/2 92/149/2
f 90/153/2 94/150/2 89/148/2
o wand_a_2
v -4.330755 2.486174 5.854539
v -4.170356 2.486174 5.854539
v -4.170356 2.486174 0.962390
v -4.170356 2.486174 0.801991
v -4.170356 2.085178 0.601494
v -4.330755 2.085178 0.601494
v -4.170356 0.080199 0.601494
v -4.170356 0.080199 0.801991
v -4.330755 0.080199 0.601494
v -4.170356 0.080199 0.962390
v -4.330755 0.080199 5.854539
v -4.170356 0.080199 5.854539
vt 2.718657 2.036632
vt 2.836860 2.036632
vt 2.836860 0.559101
vt 2.718657 0.559101
vt 5.466866 0.559101
vt 5.466866 2.036632
vt 5.319112 2.332139
vt 5.319112 0.559101
vt 1.595734 2.332139
vt 1.595734 0.559101
vt 5.200910 2.332139
vt 5.200910 0.559101
vt 2.718657 0.056741
vt 2.836860 -0.209215
vt 2.836860 -3.814391
vt 2.718657 -3.814391
usemtl Material.001_rauchfaser.jpg
s off
f 104/154/1 103/155/1 105/156/1 107/157/1
f 105/158/5 103/159/5 102/160/5 106/161/5
f 99/162/6 104/159/6 107/158/6 109/163/6
f 101/164/5 100/162/5 110/163/5 108/165/5
f 105/158/3 106/161/3 108/165/3 107/158/3
f 107/166/3 108/167/3 110/168/3 109/169/3
o wand_b_5
v 7.859518 2.486174 -0.962390
v 7.859518 2.486174 -0.801992
v 5.052547 2.085178 -0.962390
v 5.052547 2.085178 -0.801992
v 7.859518 0.080199 -0.962390
v 7.859518 0.080199 -0.801992
v 5.052547 0.080199 -0.962390
v 5.052547 0.080199 -0.801992
vt 6.619339 0.559101
vt 6.501138 0.559101
vt 6.501138 2.036632
vt 6.619339 2.036632
vt 9.633505 0.559101
vt 11.702046 0.559101
vt 11.702046 2.332139
vt 9.633505 2.036632
vt 9.633505 1.091012
vt 9.633505 1.209215
vt 11.702046 1.209215
vt 11.702046 1.091012
usemtl Material.001_rauchfaser.jpg
s off
f 117/170/6 118/171/6 114/172/6 113/173/6
f 118/174/2 116/175/2 112/176/2 114/177/2
f 111/176/1 115/175/1 117/174/1 113/177/1
f 118/178/3 117/179/3 115/180/3 116/181/3
o wand_a_6
v 2.085178 2.486174 -5.854539
v 2.245577 2.486174 -5.854539
v 2.245577 2.486174 -0.962390
v 2.085178 2.486174 -0.962390
v 2.085178 0.080199 -0.962390
v 2.245577 0.080199 -0.962390
v 2.085178 0.080199 -5.854539
v 2.245577 0.080199 -5.854539
vt 6.619339 2.332139
vt 10.224517 2.332139
vt 10.224517 0.559101
vt 6.619339 0.559101
vt 7.446757 4.814391
vt 7.446757 1.209215
vt 7.564960 1.209215
vt 7.564960 4.814391
usemtl Material.001_rauchfaser.jpg
s off
f 122/182/6 119/183/6 125/184/6 123/185/6
f 120/183/5 121/182/5 124/185/5 126/184/5
f 119/186/4 122/187/4 121/188/4 120/189/4
f 126/189/3 124/188/3 123/187/3 125/186/3
o wand_b_6
v 2.245577 2.486174 -0.962390
v 2.085178 2.486174 -0.962390
v 4.090158 2.085178 -0.962390
v 4.090158 2.085178 -0.801992
v 0.721793 2.085178 -0.801992
v 0.721793 2.085178 -0.962390
v 4.090158 0.080199 -0.801992
v 4.090158 0.080199 -0.962390
v 0.721793 0.080199 -0.962390
v 0.721793 0.080199 -0.801992
v 2.085178 0.080199 -0.962390
v 2.245577 0.080199 -0.962390
vt 6.501138 2.036632
vt 6.619339 2.036632
vt 6.619339 0.559101
vt 6.501138 0.559101
vt 6.442037 0.559101
vt 8.924288 0.559101
vt 8.924288 2.036632
vt 6.442037 2.036632
vt 7.446757 2.332139
vt 7.446757 0.559101
vt 7.564960 2.332139
vt 7.564960 0.559101
vt 8.924288 1.209215
vt 8.924288 1.091012
vt 6.442037 1.091012
vt 7.564960 1.209215
vt 6.442037 1.209215
vt 7.446757 1.209215
usemtl Material.001_rauchfaser.jpg
s off
f 131/190/6 132/191/6 135/192/6 136/193/6
f 136/194/2 133/195/2 130/196/2 131/197/2
f 128/198/1 137/199/1 135/194/1 132/197/1
f 127/200/1 129/196/1 134/195/1 138/201/1
f 129/191/5 130/190/5 133/193/5 134/192/5
f 134/202/3 133/203/3 136/204/3 138/205/3
f 138/205/3 136/204/3 135/206/3 137/207/3
o wand_a_3
v -4.170356 2.486174 -0.801992
v -4.330755 2.486174 -0.801992
v -4.170356 2.085178 -0.360896
v -4.330755 2.085178 -0.360896
v -4.330755 0.080199 -0.360896
v -4.170356 0.080199 -0.360896
v -4.170356 0.080199 -0.801992
v -4.330755 0.080199 -0.801992
vt 2.836860 2.036632
vt 2.718657 2.036632
vt 2.718657 0.559101
vt 2.836860 0.559101
vt 6.501138 2.332139
vt 6.176079 2.036632
vt 6.176079 0.559101
vt 6.501138 0.559101
vt 2.836860 1.091012
vt 2.836860 0.765955
vt 2.718657 0.765955
vt 2.718657 1.091012
usemtl Material.001_rauchfaser.jpg
s off
f 141/208/2 142/209/2 143/210/2 144/211/2
f 139/212/5 141/213/5 144/214/5 145/215/5
f 140/212/6 146/215/6 143/214/6 142/213/6
f 145/216/3 144/217/3 143/218/3 146/219/3
o wand_d_1
v -4.170356 2.486174 -0.801991
v -4.330755 2.486174 -0.801991
v -4.330755 2.486174 5.854539
v -4.170356 2.486174 5.854539
v -4.170356 2.486174 0.962390
v -4.170356 2.486174 0.801992
v -4.170356 2.085178 -0.360896
v -4.170356 2.085178 0.601494
v -4.330755 2.085178 -0.360896
v -4.330755 2.085178 0.601494
vt 6.501138 2.332139
vt 5.319112 2.332139
vt 5.466866 2.036632
vt 6.176079 2.036632
vt 1.595734 2.332139
vt 2.836860 -3.814391
vt 2.836860 -0.209215
vt 2.718657 1.091012
vt 2.718657 -3.814391
vt 2.836860 1.091012
vt 2.836860 -0.091013
vt 2.718657 0.056741
vt 2.718657 0.765955
vt 2.836860 0.765955
vt 2.836860 0.056741
usemtl Material.001_rauchfaser.jpg
s off
f 147/220/5 152/221/5 154/222/5 153/223/5
f 149/224/6 148/220/6 155/223/6 156/222/6
f 150/225/4 151/226/4 148/227/4 149/228/4
f 147/229/4 148/227/4 151/226/4 152/230/4
f 156/231/3 155/232/3 153/233/3 154/234/3
o wand_b_8
v -7.859518 2.486174 -0.962390
v -7.859518 2.486174 -0.801992
v -4.170357 2.486174 -0.801992
v -4.330755 2.486174 -0.801992
v -3.007469 2.085178 -0.801992
v -3.007469 2.085178 -0.962390
v -3.007469 0.080199 -0.801992
v -4.170357 0.080199 -0.801992
v -3.007469 0.080199 -0.962390
v -4.330755 0.080199 -0.801992
v -7.859518 0.080199 -0.801992
v -7.859518 0.080199 -0.962390
vt 6.619339 2.036632
vt 6.501138 2.036632
vt 6.501138 0.559101
vt 6.619339 0.559101
vt 3.693828 0.559101
vt 3.693828 2.036632
vt 2.836860 2.332139
vt 2.836860 0.559101
vt 0.118203 2.332139
vt 0.118203 0.559101
vt 2.718657 2.332139
vt 2.718657 0.559101
vt 0.118203 1.091012
vt 0.118203 1.209215
vt 3.693828 1.209215
vt 2.718657 1.091012
vt 3.693828 1.091012
vt 2.836860 1.091012
vn 1.000000 0.000000 -0.000001
usemtl Material.001_rauchfaser.jpg
s off
f 162/235/9 161/236/9 163/237/9 165/238/9
f 163/239/2 161/240/2 159/241/2 164/242/2
f 157/243/1 162/240/1 165/239/1 168/244/1
f 160/245/2 158/243/2 167/244/2 166/246/2
f 167/247/3 168/248/3 165/249/3 166/250/3
f 165/249/3 163/251/3 164/252/3
f 166/250/3 165/249/3 164/252/3
o wand_b_7
v -1.523784 2.486174 -0.962390
v -1.684182 2.486174 -0.962390
v -2.045079 2.085178 -0.801992
v -2.045079 2.085178 -0.962390
v -0.240598 2.085178 -0.801992
v -0.240598 2.085178 -0.962390
v -2.045079 0.080199 -0.962390
v -0.240598 0.080199 -0.962390
v -0.240598 0.080199 -0.801992
v -2.045079 0.080199 -0.801992
v -1.684182 0.080199 -0.962390
v -1.523784 0.080199 -0.962390
vt 6.501138 2.036632
vt 6.619339 2.036632
vt 6.619339 0.559101
vt 6.501138 0.559101
vt 5.732821 2.036632
vt 4.403043 2.036632
vt 4.403043 0.559101
vt 5.732821 0.559101
vt 4.668998 2.332139
vt 4.668998 0.559101
vt 4.787201 2.332139
vt 4.787201 0.559101
vt 4.787201 1.209215
vt 4.403043 1.091012
vt 4.403043 1.209215
vt 4.668998 1.209215
vt 5.732821 1.209215
vt 5.732821 1.091012
usemtl Material.001_rauchfaser.jpg
s off
f 171/253/6 172/254/6 175/255/6 178/256/6
f 174/254/5 173/253/5 177/256/5 176/255/5
f 173/257/2 171/258/2 178/259/2 177/260/2
f 170/261/1 179/262/1 175/259/1 172/258/1
f 169/263/1 174/257/1 176/260/1 180/264/1
f 180/265/3 178/266/3 175/267/3 179/268/3
f 178/266/3 180/265/3 176/269/3 177/270/3
o wand_a_4
v -1.684182 2.486174 -5.854539
v -1.523784 2.486174 -5.854539
v -1.684182 2.486174 -3.769361
v -1.684182 2.486174 -3.929759
v -1.523784 2.486174 -0.962390
v -1.684182 2.486174 -0.962390
v -1.684182 0.080199 -3.929759
v -1.684182 0.080199 -0.962390
v -1.684182 0.080199 -3.769361
v -1.523784 0.080199 -0.962390
v -1.684182 0.080199 -5.854539
v -1.523784 0.080199 -5.854539
vt 8.806086 2.332139
vt 10.224517 2.332139
vt 10.224517 0.559101
vt 8.806086 0.559101
vt 6.619339 2.332139
vt 8.687885 2.332139
vt 8.687885 0.559101
vt 6.619339 0.559101
vt 4.668998 4.814391
vt 4.668998 3.395961
vt 4.668998 3.277759
vt 4.787201 4.814391
vt 4.668998 1.209215
vt 4.787201 1.209215
vn 0.000001 1.000000 0.000000
usemtl Material.001_rauchfaser.jpg
s off
f 184/271/6 181/272/6 191/273/6 187/274/6
f 186/275/6 183/276/6 189/277/6 188/278/6
f 182/272/5 185/275/5 190/278/5 192/273/5
f 181/279/4 184/280/4 183/281/4 182/282/4
f 186/283/10 185/284/10 182/282/10 183/281/10
f 191/279/3 192/282/3 189/281/3 187/280/3
f 192/282/3 190/284/3 188/283/3 189/281/3
o wand_c_2
v -7.859518 2.486174 -0.962390
v -7.859518 2.486174 -0.801992
v 7.859518 2.486174 -0.962390
v 2.245577 2.486174 -0.962390
v 7.859518 2.486174 -0.801992
v 2.085178 2.486174 -0.962390
v -1.523784 2.486174 -0.962390
v -1.684182 2.486174 -0.962390
v -4.170356 2.486174 -0.801992
v -4.330755 2.486174 -0.801992
v -3.007469 2.085178 -0.801992
v -3.007469 2.085178 -0.962390
v -2.045079 2.085178 -0.801992
v -2.045079 2.085178 -0.962390
v 5.052548 2.085178 -0.962390
v 5.052547 2.085178 -0.801992
v 4.090158 2.085178 -0.962390
v 4.090158 2.085178 -0.801992
v -0.240597 2.085178 -0.801992
v -0.240597 2.085178 -0.962390
v 0.721792 2.085178 -0.801992
v 0.721792 2.085178 -0.962390
vt 0.118203 2.332139
vt 4.668998 2.332139
vt 4.403043 2.036632
vt 3.693828 2.036632
vt 4.668998 1.209215
vt 0.118203 1.209215
vt 0.118203 1.091012
vt 2.718657 1.091012
vt 7.446757 1.209215
vt 11.702046 1.091012
vt 11.702046 1.209215
vt 7.564960 1.209215
vt 4.403043 1.209215
vt 4.403043 1.091012
vt 3.693828 1.091012
vt 3.693828 1.209215
vt 8.924288 1.091012
vt 8.924288 1.209215
vt 9.633505 1.209215
vt 9.633505 1.091012
vt 6.442037 1.209215
vt 6.442037 1.091012
vt 5.732821 1.091012
vt 5.732821 1.209215
vt 9.633505 2.036632
vt 11.702046 2.332139
vt 8.924288 2.036632
vt 6.442037 2.036632
vt 2.836860 2.332139
vt 5.732821 2.036632
vt 4.787201 2.332139
vt 7.446757 2.332139
vt 7.564960 2.332139
vt 2.836860 1.091012
vt 4.787201 1.209215
usemtl Material.001_rauchfaser.jpg
s off
f 193/285/1 200/286/1 206/287/1 204/288/1
f 200/289/4 193/290/4 194/291/4 202/292/4
f 198/293/4 197/294/4 195/295/4 196/296/4
f 206/297/3 205/298/3 203/299/3 204/300/3
f 210/301/3 209/302/3 207/303/3 208/304/3
f 214/305/3 213/306/3 211/307/3 212/308/3
f 208/309/2 197/310/2 210/311/2
f 197/310/2 213/312/2 210/311/2
f 201/313/2 213/312/2 197/310/2
f 211/314/2 213/312/2 201/313/2
f 211/314/2 201/313/2 205/287/2
f 201/313/2 203/288/2 205/287/2
f 212/314/1 199/315/1 214/312/1
f 214/312/1 199/315/1 198/316/1
f 209/311/1 196/317/1 207/309/1
f 207/309/1 196/317/1 195/310/1
f 201/318/4 197/294/4 198/293/4
f 201/318/4 198/293/4 199/319/4
f 201/318/4 199/319/4 200/289/4
f 201/318/4 200/289/4 202/292/4
o wand_b_9
v -1.684182 2.486174 -3.769361
v -1.684182 2.486174 -3.929759
v -5.293145 2.085178 -3.769361
v -5.293145 2.085178 -3.929759
v -1.684182 0.080199 -3.929759
v -5.293145 0.080199 -3.929759
v -5.293145 0.080199 -3.769361
v -1.684182 0.080199 -3.769361
vt 2.009442 0.559101
vt 2.009442 2.036632
vt 4.668998 2.332139
vt 4.668998 0.559101
vt 8.687885 2.036632
vt 8.806086 2.036632
vt 8.806086 0.559101
vt 8.687885 0.559101
vt 2.009442 3.277759
vt 2.009442 3.395961
vt 4.668998 3.395961
vt 4.668998 3.277759
usemtl Material.001_rauchfaser.jpg
s off
f 220/320/1 218/321/1 216/322/1 219/323/1
f 215/322/2 217/321/2 221/320/2 222/323/2
f 217/324/6 218/325/6 220/326/6 221/327/6
f 221/328/3 220/329/3 219/330/3 222/331/3
o wand_b_10
v -7.859518 2.486174 -3.929759
v -7.859518 2.486174 -3.769361
v -6.255535 2.085178 -3.769361
v -6.255535 2.085178 -3.929759
v -6.255535 0.080199 -3.769361
v -6.255535 0.080199 -3.929759
v -7.859518 0.080199 -3.769361
v -7.859518 0.080199 -3.929759
vt 8.806086 2.036632
vt 8.687885 2.036632
vt 8.687885 0.559101
vt 8.806086 0.559101
vt 0.118203 2.332139
vt 1.300228 2.036632
vt 1.300228 0.559101
vt 0.118203 0.559101
vt 1.300228 3.395961
vt 1.300228 3.277759
vt 0.118203 3.277759
vt 0.118203 3.395961
usemtl Material.001_rauchfaser.jpg
s off
f 226/332/5 225/333/5 227/334/5 228/335/5
f 223/336/1 226/337/1 228/338/1 230/339/1
f 224/336/2 229/339/2 227/338/2 225/337/2
f 228/340/3 227/341/3 229/342/3 230/343/3
o wand_c_3
v -1.684182 2.486174 -3.769361
v -1.684182 2.486174 -3.929759
v -7.859518 2.486174 -3.929759
v -7.859518 2.486174 -3.769361
v -6.255535 2.085178 -3.769361
v -6.255535 2.085178 -3.929759
v -5.293145 2.085178 -3.769361
v -5.293145 2.085178 -3.929759
vt 4.668998 3.277759
vt 4.668998 3.395961
vt 0.118203 3.395961
vt 0.118203 3.277759
vt 2.009442 3.395961
vt 2.009442 3.277759
vt 1.300228 3.277759
vt 1.300228 3.395961
vt 0.118203 2.332139
vt 2.009442 2.036632
vt 1.300228 2.036632
vt 4.668998 2.332139
usemtl Material.001_rauchfaser.jpg
s off
f 231/344/4 232/345/4 233/346/4 234/347/4
f 238/348/3 237/349/3 235/350/3 236/351/3
f 233/352/1 238/353/1 236/354/1
f 232/355/1 238/353/1 233/352/1
f 234/352/2 235/354/2 237/353/2
f 237/353/2 231/355/2 234/352/2
o wand_a_7
v 7.859518 0.080199 -0.801992
v 7.859518 0.080199 -0.962390
v 8.019917 0.080199 -6.014937
v 7.859518 0.080199 -5.854539
v 8.019917 0.080199 6.014937
v 7.859518 0.080199 0.801992
v 7.859518 0.080199 0.962390
v 7.859518 0.080199 5.854539
v 8.019917 2.486174 6.014937
v 7.859518 2.486174 0.962390
v 7.859518 2.486174 5.854539
v 7.859518 2.486174 -0.801992
v 8.019917 2.486174 -6.014937
v 7.859518 2.486174 -5.854539
v 7.859518 2.486174 -0.962390
v 7.859518 2.486174 0.801992
vt 0.000000 4.932594
vt -0.118202 1.209215
vt -0.118202 4.814391
vt 11.702046 1.091012
vt 11.702046 1.209215
vt 11.820251 4.932594
vt 0.000000 -3.932594
vt -0.118202 1.091012
vt -0.118202 -0.091013
vt -0.118202 -0.209215
vt -0.118202 -3.814391
vt 11.702046 -3.814391
vt 11.820251 -3.932594
vt 11.702046 -0.209215
vt 11.702046 -0.091013
vt 1.595734 2.332139
vt 5.200910 2.332139
vt 5.200910 0.559101
vt 1.595734 0.559101
vt 6.619339 2.332139
vt 10.224517 2.332139
vt 10.224517 0.559101
vt 6.619339 0.559101
vt 6.501138 0.559101
vt 5.319112 0.559101
vt 5.319112 2.332139
vt 6.501138 2.332139
vt 1.477531 0.559101
vt 10.342719 0.559101
vt 10.342719 2.332139
vt 1.477531 2.332139
vn 0.000002 -1.000000 0.000000
usemtl Material.001_rauchfaser.jpg
s off
f 241/356/3 240/357/3 242/358/3
f 239/359/3 240/360/3 241/361/3
f 243/362/3 239/363/3 241/356/3
f 244/364/11 239/363/11 243/362/11
f 243/362/3 245/365/3 244/364/3
f 243/362/3 246/366/3 245/365/3
f 249/367/4 247/368/4 248/369/4
f 251/356/4 252/358/4 253/357/4
f 250/359/4 251/361/4 253/360/4
f 250/359/4 254/370/4 251/361/4
f 251/356/4 254/364/4 247/362/4
f 247/362/4 254/364/4 248/365/4
f 249/371/6 248/372/6 245/373/6 246/374/6
f 253/375/6 252/376/6 242/377/6 240/378/6
f 239/379/6 244/380/6 254/381/6 250/382/6
f 243/383/5 241/384/5 251/385/5 247/386/5
